<mxfile host="Electron" modified="2024-06-25T16:37:55.858Z" agent="Mozilla/5.0 (Windows NT 10.0; Win64; x64) AppleWebKit/537.36 (KHTML, like Gecko) draw.io/24.2.5 Chrome/120.0.6099.109 Electron/28.1.0 Safari/537.36" etag="6kX4w9OswKN_Ng-oE1WV" version="24.2.5" type="device">
  <diagram name="Page-1" id="c9db0220-8083-56f3-ca83-edcdcd058819">
    <mxGraphModel dx="1318" dy="2379.5" grid="1" gridSize="10" guides="1" tooltips="1" connect="1" arrows="1" fold="1" page="1" pageScale="1.5" pageWidth="826" pageHeight="1169" background="none" math="0" shadow="0">
      <root>
        <mxCell id="0" style=";html=1;" />
        <mxCell id="1" style=";html=1;" parent="0" />
        <mxCell id="mXdimHrRly60RpbKPJ4Y-3" value="" style="rounded=0;whiteSpace=wrap;html=1;" vertex="1" parent="1">
          <mxGeometry x="160" y="-40" width="880" height="900" as="geometry" />
        </mxCell>
        <mxCell id="mXdimHrRly60RpbKPJ4Y-4" value="" style="rounded=1;whiteSpace=wrap;html=1;" vertex="1" parent="1">
          <mxGeometry x="180" y="-16.25" width="840" height="70" as="geometry" />
        </mxCell>
        <mxCell id="mXdimHrRly60RpbKPJ4Y-5" value="&lt;font style=&quot;font-size: 18px;&quot;&gt;&lt;b&gt;FlyWise AirWays&lt;/b&gt;&lt;/font&gt;" style="text;html=1;align=center;verticalAlign=middle;whiteSpace=wrap;rounded=0;" vertex="1" parent="1">
          <mxGeometry x="180" y="5" width="210" height="30" as="geometry" />
        </mxCell>
        <mxCell id="mXdimHrRly60RpbKPJ4Y-6" value="Home" style="html=1;shadow=0;dashed=0;shape=mxgraph.bootstrap.rrect;rSize=5;strokeColor=none;strokeWidth=1;fillColor=#6C767D;fontColor=#FFFFFF;whiteSpace=wrap;align=left;verticalAlign=middle;spacingLeft=10;fontStyle=1;fontSize=18;" vertex="1" parent="1">
          <mxGeometry x="490" y="2.5" width="70" height="35" as="geometry" />
        </mxCell>
        <mxCell id="mXdimHrRly60RpbKPJ4Y-7" value="Abo&lt;span style=&quot;color: rgba(0, 0, 0, 0); font-family: monospace; font-size: 0px; font-weight: 400; text-wrap: nowrap;&quot;&gt;%3CmxGraphModel%3E%3Croot%3E%3CmxCell%20id%3D%220%22%2F%3E%3CmxCell%20id%3D%221%22%20parent%3D%220%22%2F%3E%3CmxCell%20id%3D%222%22%20value%3D%22Home%22%20style%3D%22html%3D1%3Bshadow%3D0%3Bdashed%3D0%3Bshape%3Dmxgraph.bootstrap.rrect%3BrSize%3D5%3BstrokeColor%3Dnone%3BstrokeWidth%3D1%3BfillColor%3D%236C767D%3BfontColor%3D%23FFFFFF%3BwhiteSpace%3Dwrap%3Balign%3Dleft%3BverticalAlign%3Dmiddle%3BspacingLeft%3D10%3BfontStyle%3D1%3BfontSize%3D18%3B%22%20vertex%3D%221%22%20parent%3D%221%22%3E%3CmxGeometry%20x%3D%22430%22%20y%3D%2275%22%20width%3D%2270%22%20height%3D%2235%22%20as%3D%22geometry%22%2F%3E%3C%2FmxCell%3E%3C%2Froot%3E%3C%2FmxGraphModel%3E&lt;/span&gt;&lt;span style=&quot;color: rgba(0, 0, 0, 0); font-family: monospace; font-size: 0px; font-weight: 400; text-wrap: nowrap;&quot;&gt;%3CmxGraphModel%3E%3Croot%3E%3CmxCell%20id%3D%220%22%2F%3E%3CmxCell%20id%3D%221%22%20parent%3D%220%22%2F%3E%3CmxCell%20id%3D%222%22%20value%3D%22Home%22%20style%3D%22html%3D1%3Bshadow%3D0%3Bdashed%3D0%3Bshape%3Dmxgraph.bootstrap.rrect%3BrSize%3D5%3BstrokeColor%3Dnone%3BstrokeWidth%3D1%3BfillColor%3D%236C767D%3BfontColor%3D%23FFFFFF%3BwhiteSpace%3Dwrap%3Balign%3Dleft%3BverticalAlign%3Dmiddle%3BspacingLeft%3D10%3BfontStyle%3D1%3BfontSize%3D18%3B%22%20vertex%3D%221%22%20parent%3D%221%22%3E%3CmxGeometry%20x%3D%22430%22%20y%3D%2275%22%20width%3D%2270%22%20height%3D%2235%22%20as%3D%22geometry%22%2F%3E%3C%2FmxCell%3E%3C%2Froot%3E%3C%2FmxGraphModel%3E&lt;/span&gt;ut&amp;nbsp;&amp;nbsp;" style="html=1;shadow=0;dashed=0;shape=mxgraph.bootstrap.rrect;rSize=5;strokeColor=none;strokeWidth=1;fillColor=#6C767D;fontColor=#FFFFFF;whiteSpace=wrap;align=left;verticalAlign=middle;spacingLeft=10;fontStyle=1;fontSize=18;" vertex="1" parent="1">
          <mxGeometry x="580" y="2.5" width="70" height="35" as="geometry" />
        </mxCell>
        <mxCell id="mXdimHrRly60RpbKPJ4Y-8" value="Contact Us" style="html=1;shadow=0;dashed=0;shape=mxgraph.bootstrap.rrect;rSize=5;strokeColor=none;strokeWidth=1;fillColor=#6C767D;fontColor=#FFFFFF;whiteSpace=wrap;align=left;verticalAlign=middle;spacingLeft=10;fontStyle=1;fontSize=18;" vertex="1" parent="1">
          <mxGeometry x="670" y="-2.5" width="90" height="45" as="geometry" />
        </mxCell>
        <mxCell id="mXdimHrRly60RpbKPJ4Y-9" value="Register" style="rounded=1;whiteSpace=wrap;html=1;arcSize=50;strokeColor=none;strokeWidth=1;fillColor=#0085FC;fontColor=#FFFFFF;whiteSpace=wrap;align=left;verticalAlign=middle;spacingLeft=0;fontStyle=1;fontSize=14;spacing=10;" vertex="1" parent="1">
          <mxGeometry x="800" y="2.5" width="80" height="35" as="geometry" />
        </mxCell>
        <mxCell id="mXdimHrRly60RpbKPJ4Y-10" value="&amp;nbsp; SignIn" style="rounded=1;whiteSpace=wrap;html=1;arcSize=50;strokeColor=none;strokeWidth=1;fillColor=#0085FC;fontColor=#FFFFFF;whiteSpace=wrap;align=left;verticalAlign=middle;spacingLeft=0;fontStyle=1;fontSize=14;spacing=10;" vertex="1" parent="1">
          <mxGeometry x="910" y="2.5" width="70" height="32.5" as="geometry" />
        </mxCell>
        <mxCell id="mXdimHrRly60RpbKPJ4Y-11" value="" style="rounded=1;whiteSpace=wrap;html=1;fillColor=#000000;arcSize=16;" vertex="1" parent="1">
          <mxGeometry x="180" y="65" width="185" height="510" as="geometry" />
        </mxCell>
        <mxCell id="mXdimHrRly60RpbKPJ4Y-12" value="&lt;b&gt;&lt;font style=&quot;font-size: 18px;&quot;&gt;Home&lt;/font&gt;&lt;/b&gt;" style="text;html=1;align=center;verticalAlign=middle;whiteSpace=wrap;rounded=0;fillColor=#FFFFFF;" vertex="1" parent="1">
          <mxGeometry x="227.5" y="95" width="90" height="30" as="geometry" />
        </mxCell>
        <mxCell id="mXdimHrRly60RpbKPJ4Y-13" value="&lt;font style=&quot;font-size: 18px;&quot;&gt;&lt;b&gt;Dashboard&lt;/b&gt;&lt;/font&gt;" style="text;html=1;align=center;verticalAlign=middle;whiteSpace=wrap;rounded=0;fillColor=#FFFFFF;" vertex="1" parent="1">
          <mxGeometry x="207.5" y="155" width="130" height="40" as="geometry" />
        </mxCell>
        <mxCell id="mXdimHrRly60RpbKPJ4Y-14" value="&lt;b&gt;&lt;font style=&quot;font-size: 18px;&quot;&gt;Book Flight&lt;/font&gt;&lt;/b&gt;" style="text;html=1;align=center;verticalAlign=middle;whiteSpace=wrap;rounded=0;fillColor=#FFFFFF;" vertex="1" parent="1">
          <mxGeometry x="207.5" y="225" width="128.5" height="40" as="geometry" />
        </mxCell>
        <mxCell id="mXdimHrRly60RpbKPJ4Y-15" value="&lt;span style=&quot;font-size: 18px;&quot;&gt;&lt;b&gt;Past Booking&lt;/b&gt;&lt;/span&gt;" style="text;html=1;align=center;verticalAlign=middle;whiteSpace=wrap;rounded=0;fillColor=#FFFFFF;" vertex="1" parent="1">
          <mxGeometry x="209" y="295" width="128.5" height="40" as="geometry" />
        </mxCell>
        <mxCell id="mXdimHrRly60RpbKPJ4Y-16" value="&lt;span style=&quot;font-size: 18px;&quot;&gt;&lt;b&gt;Post Feedback&lt;/b&gt;&lt;/span&gt;" style="text;html=1;align=center;verticalAlign=middle;whiteSpace=wrap;rounded=0;fillColor=#FFFFFF;" vertex="1" parent="1">
          <mxGeometry x="207.5" y="365" width="128.5" height="40" as="geometry" />
        </mxCell>
        <mxCell id="mXdimHrRly60RpbKPJ4Y-17" value="&lt;span style=&quot;font-size: 18px;&quot;&gt;&lt;b&gt;Feedbacks&lt;/b&gt;&lt;/span&gt;" style="text;html=1;align=center;verticalAlign=middle;whiteSpace=wrap;rounded=0;fillColor=#FFFFFF;" vertex="1" parent="1">
          <mxGeometry x="207.5" y="435" width="130" height="40" as="geometry" />
        </mxCell>
        <mxCell id="mXdimHrRly60RpbKPJ4Y-18" value="&lt;span style=&quot;font-size: 18px;&quot;&gt;&lt;b&gt;Analytics&lt;/b&gt;&lt;/span&gt;" style="text;html=1;align=center;verticalAlign=middle;whiteSpace=wrap;rounded=0;fillColor=#FFFFFF;" vertex="1" parent="1">
          <mxGeometry x="207.5" y="505" width="130" height="40" as="geometry" />
        </mxCell>
        <mxCell id="mXdimHrRly60RpbKPJ4Y-38" value="&lt;b style=&quot;&quot;&gt;&lt;font style=&quot;font-size: 24px;&quot;&gt;Login Here&lt;/font&gt;&lt;/b&gt;" style="text;html=1;align=center;verticalAlign=middle;whiteSpace=wrap;rounded=0;" vertex="1" parent="1">
          <mxGeometry x="575" y="140" width="180" height="50" as="geometry" />
        </mxCell>
        <mxCell id="mXdimHrRly60RpbKPJ4Y-54" value="&lt;font style=&quot;font-size: 18px;&quot;&gt;&lt;b&gt;Sign In&lt;/b&gt;&lt;/font&gt;" style="html=1;shadow=0;dashed=0;shape=mxgraph.bootstrap.rrect;rSize=5;strokeColor=none;strokeWidth=1;fillColor=#0085FC;fontColor=#FFFFFF;whiteSpace=wrap;align=center;verticalAlign=middle;spacingLeft=0;fontStyle=0;fontSize=16;spacing=5;" vertex="1" parent="1">
          <mxGeometry x="610" y="450" width="160" height="40" as="geometry" />
        </mxCell>
        <mxCell id="mXdimHrRly60RpbKPJ4Y-58" value="&lt;b&gt;&lt;font style=&quot;font-size: 24px;&quot;&gt;Email :&lt;/font&gt;&lt;/b&gt;" style="text;html=1;align=center;verticalAlign=middle;whiteSpace=wrap;rounded=0;" vertex="1" parent="1">
          <mxGeometry x="480" y="225" width="110" height="40" as="geometry" />
        </mxCell>
        <mxCell id="mXdimHrRly60RpbKPJ4Y-59" value="" style="rounded=1;whiteSpace=wrap;html=1;" vertex="1" parent="1">
          <mxGeometry x="587.5" y="215" width="242.5" height="60" as="geometry" />
        </mxCell>
        <mxCell id="mXdimHrRly60RpbKPJ4Y-60" value="&lt;span style=&quot;font-size: 24px;&quot;&gt;&lt;b&gt;Password :&lt;/b&gt;&lt;/span&gt;" style="text;html=1;align=center;verticalAlign=middle;whiteSpace=wrap;rounded=0;" vertex="1" parent="1">
          <mxGeometry x="420" y="335" width="185" height="40" as="geometry" />
        </mxCell>
        <mxCell id="mXdimHrRly60RpbKPJ4Y-61" value="" style="rounded=1;whiteSpace=wrap;html=1;" vertex="1" parent="1">
          <mxGeometry x="587.5" y="335" width="242.5" height="60" as="geometry" />
        </mxCell>
        <mxCell id="mXdimHrRly60RpbKPJ4Y-63" value="&lt;font style=&quot;font-size: 18px;&quot;&gt;&lt;b&gt;Sign Up&lt;/b&gt;&lt;/font&gt;" style="html=1;shadow=0;dashed=0;shape=mxgraph.bootstrap.rrect;rSize=5;strokeColor=none;strokeWidth=1;fillColor=#0085FC;fontColor=#FFFFFF;whiteSpace=wrap;align=center;verticalAlign=middle;spacingLeft=0;fontStyle=0;fontSize=16;spacing=5;" vertex="1" parent="1">
          <mxGeometry x="610" y="520" width="160" height="40" as="geometry" />
        </mxCell>
        <mxCell id="mXdimHrRly60RpbKPJ4Y-64" style="edgeStyle=orthogonalEdgeStyle;rounded=0;orthogonalLoop=1;jettySize=auto;html=1;exitX=0.5;exitY=1;exitDx=0;exitDy=0;" edge="1" parent="1">
          <mxGeometry relative="1" as="geometry">
            <mxPoint x="492.5" y="723.5" as="sourcePoint" />
            <mxPoint x="492.5" y="723.5" as="targetPoint" />
          </mxGeometry>
        </mxCell>
        <mxCell id="mXdimHrRly60RpbKPJ4Y-65" value="" style="rounded=1;whiteSpace=wrap;html=1;fillColor=#FFFFFF;" vertex="1" parent="1">
          <mxGeometry x="192.5" y="630" width="820" height="200" as="geometry" />
        </mxCell>
        <mxCell id="mXdimHrRly60RpbKPJ4Y-66" value="&lt;font style=&quot;font-size: 24px;&quot;&gt;&lt;b style=&quot;&quot;&gt;Project&lt;/b&gt;&lt;/font&gt;&lt;div&gt;&lt;font size=&quot;3&quot; style=&quot;&quot;&gt;&lt;b&gt;&lt;br&gt;&lt;/b&gt;&lt;/font&gt;&lt;/div&gt;&lt;div&gt;&lt;font style=&quot;font-size: 18px;&quot;&gt;&lt;b&gt;&lt;br&gt;&lt;/b&gt;&lt;/font&gt;&lt;/div&gt;" style="text;html=1;align=center;verticalAlign=middle;whiteSpace=wrap;rounded=0;" vertex="1" parent="1">
          <mxGeometry x="180" y="653.5" width="190" height="120" as="geometry" />
        </mxCell>
        <mxCell id="mXdimHrRly60RpbKPJ4Y-67" value="&lt;font style=&quot;font-size: 18px;&quot;&gt;&lt;b&gt;Changelog&lt;/b&gt;&lt;/font&gt;" style="text;html=1;align=center;verticalAlign=middle;whiteSpace=wrap;rounded=0;" vertex="1" parent="1">
          <mxGeometry x="219.25" y="705" width="110" height="50" as="geometry" />
        </mxCell>
        <mxCell id="mXdimHrRly60RpbKPJ4Y-68" value="&lt;font style=&quot;font-size: 18px;&quot;&gt;&lt;b&gt;Status&lt;/b&gt;&lt;/font&gt;" style="text;html=1;align=center;verticalAlign=middle;whiteSpace=wrap;rounded=0;" vertex="1" parent="1">
          <mxGeometry x="229" y="743.5" width="81" height="40" as="geometry" />
        </mxCell>
        <mxCell id="mXdimHrRly60RpbKPJ4Y-69" value="&lt;b&gt;&lt;font style=&quot;font-size: 18px;&quot;&gt;License&lt;/font&gt;&lt;/b&gt;" style="text;html=1;align=center;verticalAlign=middle;whiteSpace=wrap;rounded=0;" vertex="1" parent="1">
          <mxGeometry x="229" y="773.5" width="80" height="40" as="geometry" />
        </mxCell>
        <mxCell id="mXdimHrRly60RpbKPJ4Y-70" value="&lt;font style=&quot;font-size: 24px;&quot;&gt;&lt;b style=&quot;&quot;&gt;Community&lt;/b&gt;&lt;/font&gt;" style="text;html=1;align=center;verticalAlign=middle;whiteSpace=wrap;rounded=0;" vertex="1" parent="1">
          <mxGeometry x="412.5" y="675" width="60" height="30" as="geometry" />
        </mxCell>
        <mxCell id="mXdimHrRly60RpbKPJ4Y-71" value="&lt;font style=&quot;font-size: 18px;&quot;&gt;&lt;b&gt;Github&lt;/b&gt;&lt;/font&gt;" style="text;html=1;align=center;verticalAlign=middle;whiteSpace=wrap;rounded=0;" vertex="1" parent="1">
          <mxGeometry x="412.5" y="713.5" width="60" height="30" as="geometry" />
        </mxCell>
        <mxCell id="mXdimHrRly60RpbKPJ4Y-72" value="&lt;font style=&quot;font-size: 18px;&quot;&gt;&lt;b&gt;Issues&lt;/b&gt;&lt;/font&gt;" style="text;html=1;align=center;verticalAlign=middle;whiteSpace=wrap;rounded=0;" vertex="1" parent="1">
          <mxGeometry x="402.5" y="733.5" width="80" height="40" as="geometry" />
        </mxCell>
        <mxCell id="mXdimHrRly60RpbKPJ4Y-73" value="&lt;span style=&quot;font-size: 18px;&quot;&gt;&lt;b&gt;Twitter&lt;/b&gt;&lt;/span&gt;" style="text;html=1;align=center;verticalAlign=middle;whiteSpace=wrap;rounded=0;" vertex="1" parent="1">
          <mxGeometry x="402.5" y="763.5" width="80" height="40" as="geometry" />
        </mxCell>
        <mxCell id="mXdimHrRly60RpbKPJ4Y-74" value="&lt;b style=&quot;&quot;&gt;&lt;font style=&quot;font-size: 24px;&quot;&gt;Help&lt;/font&gt;&lt;/b&gt;" style="text;html=1;align=center;verticalAlign=middle;whiteSpace=wrap;rounded=0;" vertex="1" parent="1">
          <mxGeometry x="591.25" y="670" width="80" height="40" as="geometry" />
        </mxCell>
        <mxCell id="mXdimHrRly60RpbKPJ4Y-75" value="&lt;b style=&quot;&quot;&gt;&lt;font style=&quot;font-size: 18px;&quot;&gt;Support&lt;/font&gt;&lt;/b&gt;" style="text;html=1;align=center;verticalAlign=middle;whiteSpace=wrap;rounded=0;" vertex="1" parent="1">
          <mxGeometry x="590" y="705" width="82.5" height="40" as="geometry" />
        </mxCell>
        <mxCell id="mXdimHrRly60RpbKPJ4Y-76" value="&lt;span style=&quot;font-size: 18px;&quot;&gt;&lt;b&gt;Troubleshooting&lt;/b&gt;&lt;/span&gt;" style="text;html=1;align=center;verticalAlign=middle;whiteSpace=wrap;rounded=0;" vertex="1" parent="1">
          <mxGeometry x="591.25" y="730" width="82.5" height="40" as="geometry" />
        </mxCell>
        <mxCell id="mXdimHrRly60RpbKPJ4Y-77" value="&lt;span style=&quot;font-size: 18px;&quot;&gt;&lt;b&gt;Contact Us&lt;/b&gt;&lt;/span&gt;" style="text;html=1;align=center;verticalAlign=middle;whiteSpace=wrap;rounded=0;" vertex="1" parent="1">
          <mxGeometry x="562.5" y="755" width="140" height="40" as="geometry" />
        </mxCell>
        <mxCell id="mXdimHrRly60RpbKPJ4Y-78" value="&lt;span style=&quot;font-size: 24px;&quot;&gt;&lt;b&gt;Others&lt;/b&gt;&lt;/span&gt;" style="text;html=1;align=center;verticalAlign=middle;whiteSpace=wrap;rounded=0;" vertex="1" parent="1">
          <mxGeometry x="792.5" y="665" width="80" height="40" as="geometry" />
        </mxCell>
        <mxCell id="mXdimHrRly60RpbKPJ4Y-79" value="&lt;span style=&quot;font-size: 18px;&quot;&gt;&lt;b&gt;Terms &amp;amp; Conditions&lt;/b&gt;&lt;/span&gt;" style="text;html=1;align=center;verticalAlign=middle;whiteSpace=wrap;rounded=0;" vertex="1" parent="1">
          <mxGeometry x="722.5" y="703.5" width="220" height="40" as="geometry" />
        </mxCell>
        <mxCell id="mXdimHrRly60RpbKPJ4Y-80" value="&lt;span style=&quot;font-size: 18px;&quot;&gt;&lt;b&gt;Privacy Policy&lt;/b&gt;&lt;/span&gt;" style="text;html=1;align=center;verticalAlign=middle;whiteSpace=wrap;rounded=0;" vertex="1" parent="1">
          <mxGeometry x="757.5" y="733.5" width="146.25" height="40" as="geometry" />
        </mxCell>
        <mxCell id="mXdimHrRly60RpbKPJ4Y-81" value="" style="dashed=0;outlineConnect=0;html=1;align=center;labelPosition=center;verticalLabelPosition=bottom;verticalAlign=top;shape=mxgraph.webicons.facebook;fillColor=#6294E4;gradientColor=#1A2665" vertex="1" parent="1">
          <mxGeometry x="903.75" y="647" width="20" height="18" as="geometry" />
        </mxCell>
        <mxCell id="mXdimHrRly60RpbKPJ4Y-82" value="" style="dashed=0;outlineConnect=0;html=1;align=center;labelPosition=center;verticalLabelPosition=bottom;verticalAlign=top;shape=mxgraph.webicons.instagram;gradientColor=#DFDEDE" vertex="1" parent="1">
          <mxGeometry x="935" y="643" width="27.5" height="27" as="geometry" />
        </mxCell>
        <mxCell id="mXdimHrRly60RpbKPJ4Y-83" value="" style="dashed=0;outlineConnect=0;html=1;align=center;labelPosition=center;verticalLabelPosition=bottom;verticalAlign=top;shape=mxgraph.webicons.twitter;fillColor=#49EAF7;gradientColor=#137BD0" vertex="1" parent="1">
          <mxGeometry x="972.5" y="650" width="20" height="20" as="geometry" />
        </mxCell>
      </root>
    </mxGraphModel>
  </diagram>
</mxfile>
